<?xml version="1.0" standalone="no"?>
<!DOCTYPE svg PUBLIC "-//W3C//DTD SVG 20010904//EN"
 "http://www.w3.org/TR/2001/REC-SVG-20010904/DTD/svg10.dtd">
<svg version="1.0" xmlns="http://www.w3.org/2000/svg"
 width="860.000000pt" height="663.000000pt" viewBox="0 0 860.000000 663.000000"
 preserveAspectRatio="xMidYMid meet">

<g transform="translate(0.000000,663.000000) scale(0.100000,-0.100000)"
fill="#000000" stroke="none">
<path d="M3220 6103 c-485 -252 -1277 -665 -1676 -873 l-430 -225 265 -620
c145 -341 266 -622 267 -624 4 -4 720 86 762 96 l22 5 0 -1726 0 -1726 1870 0
1870 0 0 1726 0 1726 23 -5 c41 -10 757 -100 761 -96 1 2 122 283 267 624
l265 620 -430 225 c-707 369 -1400 730 -1655 861 l-239 123 -53 -26 c-71 -36
-176 -63 -324 -85 -178 -26 -784 -26 -970 1 -143 20 -283 57 -331 87 -17 10
-38 19 -45 19 -8 0 -106 -49 -219 -107z m396 -213 c244 -81 502 -116 789 -107
255 8 471 49 624 118 35 16 68 29 73 29 20 0 -69 -145 -129 -210 -157 -170
-376 -259 -635 -260 -277 0 -491 86 -690 278 -65 63 -169 192 -155 192 3 0 58
-18 123 -40z"/>
</g>
</svg>
